<svg width="64" height="64" viewBox="0 0 64 64" fill="none" xmlns="http://www.w3.org/2000/svg">
<path d="M28.7937 34.6893C28.7937 34.6893 21.5753 34.1595 17.337 30.9477C13.0988 27.7358 12.2709 24.9213 12.2709 24.9213C12.2709 24.9213 10.6816 27.1398 12.2709 30.0536C13.8603 32.9675 20.7806 35.5502 28.7937 34.6893Z" fill="#60C1C6"/>
<path d="M28.1315 35.6164C28.1315 35.6164 18.3967 36.2456 14.5225 33.3648C14.5225 33.3648 13.5292 39.921 28.1315 35.6164Z" fill="#60C1C6"/>
<path d="M28.1315 36.378C28.1315 36.378 21.5091 38.9276 17.1052 37.7025C17.1052 37.7025 18.2641 43.2652 28.1315 36.378Z" fill="#60C1C6"/>
<path d="M28.5205 37.0808C28.5205 37.0808 23.8765 41.113 20.8965 40.4922C20.8965 40.4922 23.3799 44.3728 28.5205 37.0808Z" fill="#60C1C6"/>
<path d="M16.7389 21.9682C16.7389 21.9682 14.0179 26.5051 17.1052 28.9749C20.1925 31.4447 28.7936 32.1562 29.7054 34.4515C30.7325 37.0371 28.1767 40.2966 24.8202 42.0318C24.8202 42.0318 31.2453 40.7145 30.5913 34.8574C29.7457 27.2837 17.598 32.3844 16.7389 21.9682Z" fill="#60C1C6"/>
<path d="M35.2064 34.6893C35.2064 34.6893 42.4248 34.1595 46.6631 30.9477C50.9014 27.7358 51.7292 24.9213 51.7292 24.9213C51.7292 24.9213 53.3186 27.1398 51.7292 30.0536C50.1398 32.9675 43.2195 35.5502 35.2064 34.6893Z" fill="#60C1C6"/>
<path d="M35.8687 35.6164C35.8687 35.6164 45.6035 36.2456 49.4775 33.3648C49.4775 33.3648 50.4709 39.921 35.8687 35.6164Z" fill="#60C1C6"/>
<path d="M35.8687 36.378C35.8687 36.378 42.491 38.9276 46.8948 37.7025C46.8948 37.7025 45.7359 43.2652 35.8687 36.378Z" fill="#60C1C6"/>
<path d="M35.4796 37.0808C35.4796 37.0808 40.1235 41.113 43.1036 40.4922C43.1036 40.4922 40.6202 44.3728 35.4796 37.0808Z" fill="#60C1C6"/>
<path d="M47.2611 21.9682C47.2611 21.9682 49.9821 26.5051 46.8948 28.9749C43.8075 31.4447 35.2064 32.1562 34.2946 34.4515C33.2675 37.0371 35.8233 40.2966 39.1798 42.0318C39.1798 42.0318 32.7547 40.7145 33.4087 34.8574C34.2543 27.2837 46.402 32.3844 47.2611 21.9682Z" fill="#60C1C6"/>
</svg>
