<svg width="853" height="607" viewBox="0 0 853 607" fill="none" xmlns="http://www.w3.org/2000/svg">
<path d="M375.471 203.954C375.471 203.954 260.216 195.495 192.544 144.211C124.871 92.9287 111.654 47.99 111.654 47.99C111.654 47.99 86.2765 83.4127 111.654 129.937C137.031 176.462 247.527 217.701 375.471 203.954Z" fill="#60C0C5"/>
<path d="M364.897 218.757C364.897 218.757 209.461 228.803 147.605 182.807C147.605 182.807 131.744 287.488 364.897 218.757Z" fill="#60C0C5"/>
<path d="M364.897 230.917C364.897 230.917 259.159 271.627 188.843 252.065C188.843 252.065 207.347 340.885 364.897 230.917Z" fill="#60C0C5"/>
<path d="M371.11 242.138C371.11 242.138 296.961 306.521 249.378 296.607C249.378 296.607 289.03 358.569 371.11 242.138Z" fill="#60C0C5"/>
<path d="M182.994 0.837463C182.994 0.837463 139.548 73.2788 188.843 112.713C238.136 152.149 375.471 163.508 390.03 200.157C406.428 241.441 365.62 293.487 312.028 321.192C312.028 321.192 414.616 300.159 404.175 206.639C390.672 85.7095 196.711 167.152 182.994 0.837463Z" fill="#60C0C5"/>
<path d="M477.861 203.954C477.861 203.954 593.116 195.495 660.789 144.211C728.461 92.9287 741.679 47.99 741.679 47.99C741.679 47.99 767.056 83.4127 741.679 129.937C716.301 176.462 605.805 217.701 477.861 203.954Z" fill="#60C0C5"/>
<path d="M488.436 218.757C488.436 218.757 643.872 228.803 705.728 182.807C705.728 182.807 721.589 287.488 488.436 218.757Z" fill="#60C0C5"/>
<path d="M488.436 230.917C488.436 230.917 594.174 271.627 664.49 252.065C664.49 252.065 645.986 340.885 488.436 230.917Z" fill="#60C0C5"/>
<path d="M482.224 242.138C482.224 242.138 556.373 306.521 603.954 296.607C603.954 296.607 564.304 358.569 482.224 242.138Z" fill="#60C0C5"/>
<path d="M670.338 0.837463C670.338 0.837463 713.784 73.2788 664.489 112.713C615.196 152.149 477.861 163.508 463.304 200.157C446.904 241.441 487.712 293.487 541.305 321.192C541.305 321.192 438.716 300.159 449.158 206.639C462.66 85.7095 656.622 167.152 670.338 0.837463Z" fill="#60C0C5"/>
<path d="M123.79 593.167C123.674 593.098 123.571 593.063 123.481 593.063C123.342 593.063 123.229 593.133 123.137 593.271C119.927 600.973 115.229 604.823 109.039 604.823C105.785 604.823 102.85 603.791 100.237 601.729C97.6232 599.666 95.5619 596.87 94.0485 593.338C92.5352 589.809 91.7779 585.937 91.7779 581.718C91.7779 576.125 93.1299 571.643 95.8365 568.274C98.5405 564.905 102.277 563.221 107.045 563.221C110.666 563.221 113.818 564.159 116.501 566.039C119.181 567.919 121.187 570.646 122.517 574.223C122.562 574.359 122.701 574.418 122.93 574.394C123.159 574.371 123.273 574.291 123.273 574.154L122.449 565.214C122.403 564.71 122.322 564.355 122.207 564.147C122.094 563.942 121.829 563.749 121.418 563.563C120.133 562.969 118.379 562.487 116.157 562.119C113.933 561.754 111.79 561.569 109.727 561.569C105.279 561.569 101.109 562.487 97.2112 564.321C93.3139 566.154 90.1859 568.745 87.8245 572.09C85.4632 575.438 84.2832 579.266 84.2832 583.575C84.2832 587.287 85.1659 590.863 86.9312 594.302C88.6952 597.741 91.4459 600.571 95.1832 602.795C98.9192 605.019 103.561 606.129 109.107 606.129C113.601 606.129 117.863 605.327 121.898 603.723C122.265 603.585 122.506 603.426 122.621 603.241C122.734 603.059 122.838 602.691 122.93 602.141L123.961 593.338C123.961 593.294 123.902 593.237 123.79 593.167Z" fill="#60C0C5"/>
<path d="M226.111 595.677C224.851 598.565 223.131 600.756 220.954 602.245C218.778 603.736 216.313 604.48 213.562 604.48C210.353 604.48 207.475 603.483 204.933 601.488C202.389 599.493 200.394 596.732 198.95 593.203C197.505 589.673 196.783 585.731 196.783 581.373C196.783 575.736 198.01 571.312 200.462 568.103C202.914 564.895 206.387 563.288 210.881 563.288C214.319 563.288 217.334 564.241 219.923 566.144C222.513 568.045 224.506 570.671 225.906 574.017C227.303 577.364 228.003 581.145 228.003 585.364C228.003 589.351 227.373 592.789 226.111 595.677ZM225.115 564.631C221.814 562.592 217.985 561.569 213.631 561.569C209.734 561.569 205.918 562.419 202.181 564.115C198.445 565.812 195.385 568.344 193.001 571.712C190.617 575.083 189.425 579.129 189.425 583.849C189.425 587.884 190.33 591.609 192.142 595.025C193.953 598.44 196.519 601.145 199.843 603.139C203.167 605.133 206.961 606.129 211.223 606.129C215.533 606.129 219.533 605.123 223.223 603.104C226.914 601.088 229.859 598.337 232.061 594.852C234.261 591.369 235.361 587.54 235.361 583.369C235.361 579.609 234.478 576.056 232.714 572.709C230.949 569.364 228.415 566.671 225.115 564.631Z" fill="#60C0C5"/>
<path d="M351.298 604.136C350.611 603.908 350.141 603.47 349.889 602.83C349.637 602.188 349.465 601.156 349.374 599.734L347.791 568.309C347.699 566.476 348.146 565.158 349.133 564.356C350.119 563.553 351.711 563.152 353.911 563.152C354.003 563.152 354.049 563.013 354.049 562.738C354.049 562.464 354.003 562.326 353.911 562.326C352.766 562.326 351.895 562.349 351.298 562.394L347.517 562.464C346.829 562.464 346.233 562.441 345.73 562.394C345.223 562.349 344.811 562.326 344.491 562.326C343.987 562.326 343.574 562.453 343.253 562.704C342.931 562.957 342.634 563.404 342.359 564.046L328.675 595.402L313.547 565.901C312.767 564.389 312.194 563.416 311.827 562.978C311.459 562.545 310.979 562.326 310.383 562.326C309.834 562.326 309.374 562.349 309.009 562.394L305.777 562.464C304.814 562.464 304.034 562.441 303.438 562.394L300.482 562.326C300.343 562.326 300.274 562.464 300.274 562.738C300.274 563.013 300.343 563.152 300.482 563.152C303.047 563.152 305.089 564.55 306.602 567.345L305.982 596.985C305.937 599.369 305.398 601.213 304.366 602.52C303.335 603.826 301.879 604.48 299.999 604.48C299.862 604.48 299.794 604.617 299.794 604.893C299.794 605.168 299.862 605.304 299.999 605.304C301.238 605.304 302.201 605.282 302.889 605.236L306.946 605.168L310.727 605.236C311.414 605.282 312.378 605.304 313.615 605.304C313.753 605.304 313.822 605.168 313.822 604.893C313.822 604.617 313.753 604.48 313.615 604.48C311.645 604.48 310.166 603.838 309.181 602.554C308.194 601.272 307.723 599.414 307.77 596.985L308.39 570.853L325.581 604.824C325.763 605.006 325.97 605.098 326.201 605.098C326.475 605.098 326.657 605.006 326.75 604.824L341.397 570.716L342.773 599.734C342.862 601.11 342.783 602.132 342.531 602.796C342.278 603.46 341.798 603.908 341.086 604.136C340.375 604.365 339.266 604.48 337.753 604.48C337.659 604.48 337.614 604.617 337.614 604.893C337.614 605.168 337.659 605.304 337.753 605.304C339.218 605.304 340.365 605.282 341.19 605.236L346.141 605.168L351.023 605.236C351.895 605.282 353.109 605.304 354.669 605.304C354.761 605.304 354.805 605.168 354.805 604.893C354.805 604.617 354.761 604.48 354.669 604.48C353.109 604.48 351.986 604.365 351.298 604.136Z" fill="#60C0C5"/>
<path d="M446.642 565.007C444.004 563.082 440.418 562.119 435.88 562.119C434.595 562.119 433.483 562.143 432.544 562.189C431.603 562.235 430.86 562.282 430.31 562.326C428.796 562.463 427.512 562.533 426.459 562.533C425.22 562.533 423.592 562.487 421.576 562.394L418 562.326C417.862 562.326 417.795 562.463 417.795 562.738C417.795 563.013 417.862 563.151 418 563.151C419.514 563.151 420.636 563.278 421.37 563.53C422.103 563.783 422.595 564.229 422.848 564.87C423.1 565.514 423.226 566.521 423.226 567.897V599.734C423.226 601.11 423.1 602.131 422.848 602.795C422.595 603.459 422.114 603.907 421.404 604.135C420.694 604.366 419.558 604.479 418 604.479C417.862 604.479 417.795 604.618 417.795 604.893C417.795 605.167 417.862 605.305 418 605.305C419.514 605.305 420.706 605.282 421.576 605.235L426.528 605.167L432.51 605.235C433.564 605.282 435.031 605.305 436.911 605.305C437.002 605.305 437.05 605.167 437.05 604.893C437.05 604.618 437.002 604.479 436.911 604.479C434.802 604.479 433.255 604.342 432.27 604.066C431.283 603.791 430.619 603.322 430.275 602.657C429.931 601.993 429.76 600.927 429.76 599.459V568.034C429.76 566.705 429.872 565.73 430.104 565.111C430.332 564.491 430.734 564.07 431.307 563.838C431.88 563.61 432.718 563.495 433.816 563.495C436.796 563.495 439.135 564.491 440.831 566.486C442.526 568.481 443.375 571.29 443.375 574.911C443.375 578.579 442.55 581.398 440.899 583.369C439.25 585.341 437.231 586.325 434.847 586.325C433.976 586.325 433.174 586.234 432.44 586.05C432.348 586.005 432.27 586.05 432.2 586.189C432.132 586.325 432.098 586.463 432.098 586.599C432.098 586.83 432.166 586.945 432.304 586.945C433.174 587.174 434.251 587.287 435.536 587.287C437.966 587.287 440.336 586.785 442.652 585.775C444.968 584.769 446.87 583.255 448.36 581.237C449.85 579.221 450.595 576.766 450.595 573.878C450.595 569.891 449.278 566.934 446.642 565.007Z" fill="#60C0C5"/>
<path d="M525.069 582.2L530.227 570.716L535.865 582.2H525.069ZM557.597 604.479C556.359 604.479 555.2 603.872 554.123 602.656C553.045 601.443 551.681 599.184 550.031 595.884L533.253 561.913C533.207 561.777 533.023 561.708 532.703 561.708C532.381 561.708 532.176 561.777 532.084 561.913L517.369 595.196C516.223 597.764 515.224 599.7 514.376 601.007C513.528 602.313 512.668 603.219 511.799 603.724C510.927 604.228 509.849 604.479 508.567 604.479C508.336 604.479 508.223 604.617 508.223 604.893C508.223 605.168 508.336 605.304 508.567 605.304C509.528 605.304 510.741 605.259 512.209 605.168C513.861 605.076 515.305 605.029 516.541 605.029C517.919 605.029 519.476 605.076 521.219 605.168C522.684 605.259 523.831 605.304 524.657 605.304C524.887 605.304 525 605.168 525 604.893C525 604.617 524.887 604.479 524.657 604.479C522.595 604.479 520.988 604.065 519.844 603.241C518.697 602.416 518.125 601.201 518.125 599.597C518.125 598.497 518.423 597.259 519.019 595.884L524.313 583.987H536.76L544.187 599.048C544.965 600.697 545.356 601.867 545.356 602.555C545.356 603.241 545.047 603.736 544.428 604.033C543.808 604.331 542.833 604.479 541.505 604.479C541.32 604.479 541.231 604.617 541.231 604.893C541.231 605.168 541.32 605.304 541.505 605.304C542.375 605.304 543.591 605.259 545.149 605.168C546.708 605.076 548.06 605.029 549.207 605.029C550.077 605.029 551.476 605.076 553.401 605.168C555.325 605.259 556.725 605.304 557.597 605.304C557.825 605.304 557.939 605.168 557.939 604.893C557.939 604.617 557.825 604.479 557.597 604.479Z" fill="#60C0C5"/>
<path d="M666.038 562.326L663.011 562.394C661.362 562.488 660.123 562.533 659.299 562.533C658.338 562.533 657.122 562.488 655.655 562.394L652.835 562.326C652.743 562.326 652.698 562.464 652.698 562.738C652.698 563.013 652.743 563.152 652.835 563.152C654.669 563.152 656.055 563.805 656.995 565.11C657.934 566.418 658.405 568.286 658.405 570.716V595.058L633.649 565.901C633.009 565.169 632.481 564.457 632.069 563.77C631.701 563.176 631.403 562.785 631.175 562.602C630.945 562.418 630.647 562.326 630.281 562.326C629.546 562.326 628.905 562.349 628.354 562.394L623.954 562.464C622.853 562.464 622.005 562.441 621.409 562.394L618.659 562.326C618.566 562.326 618.521 562.464 618.521 562.738C618.521 563.013 618.566 563.152 618.659 563.152C619.713 563.152 620.767 563.426 621.822 563.977C622.875 564.526 624.045 565.466 625.33 566.796V596.985C625.33 599.414 624.79 601.27 623.713 602.554C622.635 603.838 621.11 604.48 619.141 604.48C619.002 604.48 618.934 604.617 618.934 604.893C618.934 605.168 619.002 605.304 619.141 605.304C620.561 605.304 621.639 605.282 622.373 605.236L626.361 605.168L629.937 605.236C630.625 605.282 631.586 605.304 632.825 605.304C632.917 605.304 632.962 605.168 632.962 604.893C632.962 604.617 632.917 604.48 632.825 604.48C630.99 604.48 629.593 603.838 628.629 602.554C627.667 601.27 627.185 599.414 627.185 596.985V568.928L659.437 606.405C659.529 606.496 659.689 606.518 659.918 606.473C660.147 606.426 660.262 606.358 660.262 606.268V570.716C660.262 568.286 660.754 566.418 661.741 565.11C662.726 563.805 664.158 563.152 666.038 563.152C666.13 563.152 666.177 563.013 666.177 562.738C666.177 562.464 666.13 562.326 666.038 562.326Z" fill="#60C0C5"/>
<path d="M768.912 562.326L766.368 562.394C765.358 562.488 764.442 562.533 763.616 562.533C761.966 562.533 760.178 562.488 758.253 562.394L754.677 562.326C754.585 562.326 754.541 562.464 754.541 562.738C754.541 563.013 754.585 563.152 754.677 563.152C755.916 563.152 756.866 563.426 757.53 563.977C758.194 564.526 758.528 565.284 758.528 566.245C758.528 567.53 757.932 569.158 756.741 571.128L749.796 582.612L739.754 567.277C739.205 566.453 738.93 565.696 738.93 565.008C738.93 563.77 739.869 563.152 741.749 563.152C741.84 563.152 741.886 563.013 741.886 562.738C741.886 562.464 741.84 562.326 741.749 562.326L737.417 562.394C734.574 562.488 732.398 562.533 730.885 562.533C730.425 562.533 729.692 562.488 728.684 562.394L726.414 562.326C726.277 562.326 726.209 562.464 726.209 562.738C726.209 563.013 726.277 563.152 726.414 563.152C727.422 563.152 728.5 563.632 729.646 564.596C730.792 565.558 732.144 567.256 733.704 569.684L744.156 585.569V599.734C744.156 601.11 744.02 602.132 743.745 602.796C743.469 603.46 742.974 603.908 742.266 604.136C741.553 604.365 740.418 604.48 738.861 604.48C738.769 604.48 738.724 604.617 738.724 604.893C738.724 605.168 738.769 605.304 738.861 605.304C740.418 605.304 741.634 605.282 742.506 605.236L747.388 605.168L752.477 605.236C753.348 605.282 754.517 605.304 755.985 605.304C756.074 605.304 756.121 605.168 756.121 604.893C756.121 604.617 756.074 604.48 755.985 604.48C754.425 604.48 753.29 604.365 752.58 604.136C751.869 603.908 751.388 603.47 751.136 602.829C750.884 602.188 750.758 601.156 750.758 599.734V584.33L758.597 571.609C760.109 569.133 761.829 567.105 763.754 565.524C765.68 563.942 767.398 563.152 768.912 563.152C769.002 563.152 769.05 563.013 769.05 562.738C769.05 562.464 769.002 562.326 768.912 562.326Z" fill="#60C0C5"/>
<path d="M70.8361 475.947L80.4494 459.235L90.0654 475.947H70.8361ZM0.926758 525.099H42.4414L50.0788 511.891H110.823L118.46 525.099H159.975L80.4494 387.349L0.926758 525.099Z" fill="#60C0C5"/>
<path d="M387.239 456.092C379.331 448.183 369.806 444.23 358.666 444.23H331.709C330.447 444.23 329.386 443.798 328.523 442.922C327.647 442.06 327.215 440.998 327.215 439.736C327.215 438.475 327.647 437.412 328.523 436.551C329.386 435.674 330.447 435.243 331.709 435.243H399.103V399.3H331.709C320.569 399.3 311.045 403.255 303.135 411.163C298.581 415.718 295.334 420.826 293.411 426.458C291.981 430.596 291.273 435.012 291.273 439.736C291.273 441.69 291.397 443.598 291.642 445.444C292.781 454.17 296.611 461.786 303.135 468.31C311.045 476.218 320.569 480.172 331.709 480.172H358.666C359.929 480.172 360.99 480.603 361.851 481.48C362.729 482.342 363.159 483.403 363.159 484.666C363.159 485.927 362.729 486.988 361.851 487.85C360.99 488.727 359.929 489.158 358.666 489.158H293.042C293.289 491.004 293.411 492.912 293.411 494.867C293.411 506.007 289.457 515.531 281.547 523.44C280.963 524.024 280.378 524.579 279.779 525.102H358.666C369.806 525.102 379.331 521.147 387.239 513.238C395.149 505.33 399.103 495.806 399.103 484.666C399.103 473.526 395.149 464.002 387.239 456.092Z" fill="#60C0C5"/>
<path d="M459.8 475.947L469.413 459.235L479.029 475.947H459.8ZM469.413 387.349L389.891 525.099H431.405L439.043 511.891H499.785L507.424 525.099H548.939L469.413 387.349Z" fill="#60C0C5"/>
<path d="M648.174 463.724L583.75 399.3H558.315V525.101H594.258V460.677L658.682 525.101H684.117V399.3H648.174V463.724Z" fill="#60C0C5"/>
<path d="M763.268 475.947L772.881 459.235L782.497 475.947H763.268ZM772.881 387.349L693.358 525.099H734.873L742.51 511.891H803.253L810.892 525.099H852.406L772.881 387.349Z" fill="#60C0C5"/>
<path d="M270.425 456.091C262.517 448.181 252.993 444.229 241.85 444.229H214.893C213.635 444.229 212.571 443.795 211.702 442.925C210.834 442.057 210.399 440.993 210.399 439.736C210.399 438.479 210.834 437.415 211.702 436.545C212.571 435.679 213.635 435.243 214.893 435.243H282.285V399.301H214.893C203.751 399.301 194.226 403.255 186.319 411.161C178.411 419.069 174.458 428.593 174.458 439.736C174.458 450.877 178.411 460.403 186.319 468.309C194.226 476.217 203.751 480.172 214.893 480.172H241.85C243.107 480.172 244.171 480.607 245.039 481.475C245.909 482.344 246.342 483.407 246.342 484.664C246.342 485.921 245.909 486.987 245.039 487.855C244.171 488.723 243.107 489.157 241.85 489.157H155.101L174.458 525.099H241.85C252.993 525.099 262.517 521.147 270.425 513.239C278.331 505.331 282.285 495.807 282.285 484.664C282.285 473.523 278.331 463.997 270.425 456.091Z" fill="#60C0C5"/>
</svg>
