<svg width="87" height="69" viewBox="0 0 87 69" fill="none" xmlns="http://www.w3.org/2000/svg">
<path fill-rule="evenodd" clip-rule="evenodd" d="M77.2169 44.0039C68.8359 47.0932 62.6722 48.6066 58.3766 48.6286L58.3769 48.6286C58.9848 49.1446 59.2306 49.622 59.2293 50.2496C59.2293 51.401 58.1803 52.8335 56.6577 53.8389C59.0713 53.6948 62.5577 53.0613 65.0084 52.3175C67.6763 51.51 72.2682 49.6148 77.2932 47.2459C79.3514 46.2738 81.1743 45.5672 82.1695 45.356C82.382 45.3082 82.4325 45.2225 82.4485 45.194H82.4491C82.5229 45.0684 82.5149 44.832 82.4266 44.5286C82.2478 43.895 81.9031 43.5517 81.3105 43.4116C80.32 43.1891 78.8638 43.3963 77.2169 44.0039ZM57.4444 46.8481H54.908L53.2877 46.0385C52.2833 45.5312 50.4743 44.5576 49.4765 43.9838C49.6134 43.9971 53.218 44.1187 55.9896 44.0742C60.9276 43.9725 62.9259 43.8457 69.2736 42.416C69.8853 42.2788 70.4537 42.1411 70.9817 42.0132C73.2229 41.4702 74.7381 41.1031 75.7634 41.7008C76.0644 41.8774 76.3095 42.155 76.4703 42.4512C75.9793 42.6484 74.6386 43.1053 72.0537 43.9832C65.9008 46.0725 61.9412 46.8481 57.4444 46.8481ZM78.2019 48.7646C81.7028 47.0998 83.0097 46.7093 84.1583 47.2187L84.157 47.2195C85.2704 47.7122 85.491 49.5411 84.6074 50.6461C80.8727 55.3119 67.1293 68.5509 44.8621 68.5509C23.0801 68.5509 12.5205 54.0357 7.70871 47.2188C4.7983 43.1109 0.642822 33.3051 0.642822 32.5062C0.642822 31.9996 6.54679 26.4112 15.0071 25.7485C20.3748 25.3254 23.9929 26.5919 28.6977 29.4859C30.255 30.4437 34.366 33.9393 38.3219 37.3032C41.7576 40.2246 45.0764 43.0467 46.504 44.0205C49.2225 45.8746 51.628 47.1895 55.3796 48.8709C56.4658 49.363 57.1753 49.7581 57.267 49.8411C57.4098 49.974 57.463 50.1533 57.4298 50.3884C57.3201 51.1481 56.3794 52.1342 55.1896 52.7332C52.1862 54.2627 47.8974 53.9611 41.2898 51.759C39.3946 51.1229 35.0239 49.0217 33.363 47.9479C32.7792 47.5766 31.7794 46.8442 31.1343 46.3149C29.9724 45.3706 29.6296 45.2557 29.3513 45.3746C28.9653 45.5246 28.9102 45.8354 28.9035 45.9609C28.8384 47.303 33.591 50.0862 36.1148 51.3712C43.1878 54.9433 51.585 56.387 59.1558 55.3324C64.7266 54.5587 69.5323 52.9012 78.2019 48.7646Z" fill="#60C1C6"/>
<path d="M63.5407 10.304C61.6414 10.636 60.795 10.9182 60.1693 11.2848C59.7381 11.5358 59.4817 11.8619 59.4266 12.2338C59.3781 12.5758 59.503 12.9191 59.7893 13.2306C60.2311 13.7001 60.7865 13.9863 62.4798 14.1171C63.657 14.2074 64.5199 14.1297 64.5359 14.2798C64.6608 15.4791 59.9559 15.0926 58.1928 15.3795C55.5481 15.8105 51.687 16.3617 49.9319 16.5602C47.6186 16.8126 44.6072 17.4348 43.351 17.917C42.609 18.2045 40.7621 19.2033 40.151 19.6442C38.3945 20.9398 37.127 22.6451 36.7596 24.2085C36.1166 26.9724 37.1855 29.3093 39.9365 31.156C41.2393 32.034 44.1092 32.9703 46.0803 33.1636C49.3647 33.4791 52.2892 32.6164 55.3345 31.2803C55.6859 31.1262 57.3294 30.3048 57.3294 30.3048C57.3294 30.3048 56.6983 31.9603 58.5092 31.5519C59.7715 31.267 62.11 30.2304 65.6396 27.4818C65.8741 27.2992 67.5908 25.5892 67.7415 25.6285C68.3214 25.7779 67.2897 27.4096 67.2864 27.6745C67.2711 28.7682 70.5676 28.1792 74.9368 23.077C77.1809 20.4573 78.5149 18.101 80.0828 14.5715C80.5159 13.6013 81.1178 12.4332 81.8087 9.49472C82.8258 7.72752 85.808 2.89176 86.0783 2.40095C86.4755 1.67844 86.5851 0.393376 85.4677 0.290523C84.9715 0.244702 84.6347 0.483766 83.4308 2.65324C83.4308 2.65324 81.7501 5.49486 80.6692 7.08338C78.0485 10.9304 72.6833 15.6878 68.0223 18.5687C66.4711 19.5296 63.2709 21.1772 61.9078 21.7197C58.3809 23.1276 54.5822 23.9702 50.6142 24.2246C49.9239 24.2691 49.4416 23.9954 49.4436 23.4536C49.4456 23.0763 49.7373 22.6022 50.7862 22.5218C53.4548 22.3153 54.1138 22.1705 55.8552 21.7821C59.3722 20.9978 62.9688 19.5309 66.543 17.4218C69.8203 15.4827 73.5671 12.4286 76.5652 9.25156C77.2415 8.53967 79.2205 6.12977 79.4557 5.83754C78.0759 6.16294 71.908 8.84108 63.5407 10.304Z" fill="#247B80"/>
</svg>
