<svg width="90" height="65" viewBox="0 0 90 65" fill="none" xmlns="http://www.w3.org/2000/svg">
<path d="M39.5887 21.469C39.5887 21.469 27.4065 20.5749 20.2536 15.1543C13.1007 9.7338 11.7036 4.98386 11.7036 4.98386C11.7036 4.98386 9.02128 8.72798 11.7036 13.6455C14.386 18.5631 26.0652 22.922 39.5887 21.469Z" fill="#60C0C5"/>
<path d="M38.4711 23.0338C38.4711 23.0338 22.0417 24.0956 15.5037 19.2339C15.5037 19.2339 13.8271 30.2985 38.4711 23.0338Z" fill="#60C0C5"/>
<path d="M38.4711 24.319C38.4711 24.319 27.2947 28.6219 19.8624 26.5543C19.8624 26.5543 21.8183 35.9424 38.4711 24.319Z" fill="#60C0C5"/>
<path d="M39.1277 25.5051C39.1277 25.5051 31.2903 32.3103 26.2609 31.2625C26.2609 31.2625 30.452 37.8117 39.1277 25.5051Z" fill="#60C0C5"/>
<path d="M19.2441 0.000118256C19.2441 0.000118256 14.652 7.65705 19.8624 11.8252C25.0726 15.9935 39.5887 17.1941 41.1275 21.0679C42.8608 25.4316 38.5475 30.9327 32.8829 33.8611C32.8829 33.8611 43.7263 31.6379 42.6226 21.753C41.1954 8.97095 20.694 17.5793 19.2441 0.000118256Z" fill="#60C0C5"/>
<path d="M50.4113 21.469C50.4113 21.469 62.5935 20.5749 69.7464 15.1543C76.8993 9.7338 78.2963 4.98386 78.2963 4.98386C78.2963 4.98386 80.9787 8.72798 78.2963 13.6455C75.614 18.5631 63.9347 22.922 50.4113 21.469Z" fill="#60C0C5"/>
<path d="M51.5289 23.0338C51.5289 23.0338 67.9583 24.0956 74.4963 19.2339C74.4963 19.2339 76.1729 30.2985 51.5289 23.0338Z" fill="#60C0C5"/>
<path d="M51.5289 24.319C51.5289 24.319 62.7053 28.6219 70.1376 26.5543C70.1376 26.5543 68.1818 35.9424 51.5289 24.319Z" fill="#60C0C5"/>
<path d="M50.8723 25.5051C50.8723 25.5051 58.7098 32.3103 63.739 31.2625C63.739 31.2625 59.548 37.8117 50.8723 25.5051Z" fill="#60C0C5"/>
<path d="M70.7557 0.000118256C70.7557 0.000118256 75.3478 7.65705 70.1375 11.8252C64.9272 15.9935 50.4112 17.1941 48.8725 21.0679C47.139 25.4316 51.4524 30.9327 57.1171 33.8611C57.1171 33.8611 46.2736 31.6379 47.3774 21.753C48.8044 8.97095 69.306 17.5793 70.7557 0.000118256Z" fill="#60C0C5"/>
<path d="M12.9865 62.6083C12.9742 62.601 12.9633 62.5973 12.9538 62.5973C12.9391 62.5973 12.9271 62.6046 12.9174 62.6193C12.5782 63.4333 12.0815 63.8403 11.4273 63.8403C11.0833 63.8403 10.7731 63.7312 10.4969 63.5132C10.2207 63.2952 10.0028 62.9996 9.84285 62.6263C9.68289 62.2533 9.60284 61.844 9.60284 61.3981C9.60284 60.8069 9.74575 60.3332 10.0318 59.9771C10.3176 59.621 10.7125 59.443 11.2165 59.443C11.5993 59.443 11.9324 59.5422 12.216 59.7409C12.4993 59.9396 12.7114 60.2278 12.8519 60.6059C12.8567 60.6203 12.8713 60.6265 12.8956 60.624C12.9198 60.6216 12.9318 60.6131 12.9318 60.5986L12.8447 59.6537C12.8399 59.6004 12.8313 59.5629 12.8192 59.5409C12.8072 59.5192 12.7791 59.4988 12.7357 59.4792C12.5999 59.4163 12.4146 59.3655 12.1796 59.3266C11.9446 59.2879 11.7181 59.2684 11.5001 59.2684C11.0299 59.2684 10.5891 59.3655 10.1771 59.5592C9.7652 59.753 9.43457 60.0268 9.18498 60.3804C8.93539 60.7343 8.81067 61.1389 8.81067 61.5944C8.81067 61.9868 8.90397 62.3648 9.09056 62.7282C9.27701 63.0917 9.56775 63.3909 9.96278 63.6259C10.3577 63.861 10.8483 63.9783 11.4345 63.9783C11.9095 63.9783 12.36 63.8936 12.7865 63.724C12.8252 63.7094 12.8507 63.6926 12.8629 63.673C12.8748 63.6538 12.8858 63.615 12.8956 63.5567L13.0045 62.6263C13.0045 62.6217 12.9983 62.6156 12.9865 62.6083Z" fill="#60C0C5"/>
<path d="M23.8017 62.8735C23.6685 63.1788 23.4867 63.4103 23.2565 63.5677C23.0265 63.7253 22.766 63.8039 22.4752 63.8039C22.136 63.8039 21.8319 63.6985 21.5631 63.4877C21.2942 63.2769 21.0834 62.985 20.9308 62.6119C20.778 62.2389 20.7017 61.8222 20.7017 61.3616C20.7017 60.7657 20.8314 60.2981 21.0906 59.9589C21.3498 59.6198 21.7169 59.45 22.1918 59.45C22.5553 59.45 22.8739 59.5508 23.1476 59.7519C23.4213 59.9529 23.632 60.2303 23.78 60.5841C23.9277 60.9378 24.0017 61.3375 24.0017 61.7834C24.0017 62.2048 23.935 62.5683 23.8017 62.8735ZM23.6964 59.5919C23.3474 59.3764 22.9427 59.2684 22.4826 59.2684C22.0706 59.2684 21.6673 59.3581 21.2722 59.5374C20.8773 59.7168 20.5539 59.9844 20.3019 60.3404C20.0499 60.6967 19.924 61.1244 19.924 61.6233C19.924 62.0498 20.0196 62.4435 20.2112 62.8046C20.4026 63.1655 20.6738 63.4515 21.0252 63.6622C21.3765 63.873 21.7775 63.9783 22.228 63.9783C22.6835 63.9783 23.1063 63.8719 23.4964 63.6585C23.8865 63.4454 24.1978 63.1547 24.4305 62.7863C24.663 62.4182 24.7793 62.0134 24.7793 61.5726C24.7793 61.1752 24.686 60.7996 24.4996 60.4458C24.313 60.0922 24.0452 59.8076 23.6964 59.5919Z" fill="#60C0C5"/>
<path d="M37.0337 63.7677C36.9612 63.7436 36.9114 63.6973 36.8848 63.6297C36.8581 63.5618 36.84 63.4527 36.8304 63.3024L36.6631 59.9808C36.6534 59.7871 36.7006 59.6478 36.8049 59.563C36.9091 59.4781 37.0774 59.4357 37.31 59.4357C37.3197 59.4357 37.3245 59.4211 37.3245 59.392C37.3245 59.363 37.3197 59.3485 37.31 59.3485C37.1889 59.3485 37.0969 59.3509 37.0337 59.3557L36.6341 59.363C36.5613 59.363 36.4983 59.3606 36.4452 59.3557C36.3917 59.3509 36.3481 59.3485 36.3143 59.3485C36.261 59.3485 36.2173 59.3619 36.1834 59.3884C36.1494 59.4151 36.118 59.4624 36.0889 59.5303L34.6426 62.8446L33.0435 59.7263C32.9611 59.5665 32.9005 59.4636 32.8617 59.4174C32.8229 59.3716 32.7721 59.3485 32.7091 59.3485C32.6511 59.3485 32.6024 59.3509 32.5638 59.3557L32.2222 59.363C32.1204 59.363 32.038 59.3606 31.975 59.3557L31.6626 59.3485C31.6479 59.3485 31.6406 59.363 31.6406 59.392C31.6406 59.4211 31.6479 59.4357 31.6626 59.4357C31.9337 59.4357 32.1495 59.5836 32.3094 59.8789L32.2439 63.0118C32.2391 63.2638 32.1822 63.4587 32.0731 63.5968C31.9642 63.735 31.8103 63.804 31.6115 63.804C31.597 63.804 31.5898 63.8185 31.5898 63.8477C31.5898 63.8767 31.597 63.8911 31.6115 63.8911C31.7425 63.8911 31.8442 63.8889 31.9169 63.8839L32.3458 63.8767L32.7455 63.8839C32.8181 63.8889 32.92 63.8911 33.0507 63.8911C33.0653 63.8911 33.0726 63.8767 33.0726 63.8477C33.0726 63.8185 33.0653 63.804 33.0507 63.804C32.8424 63.804 32.6861 63.7362 32.582 63.6005C32.4777 63.4649 32.428 63.2686 32.4329 63.0118L32.4984 60.2497L34.3155 63.8404C34.3348 63.8597 34.3566 63.8694 34.381 63.8694C34.41 63.8694 34.4292 63.8597 34.439 63.8404L35.9872 60.2352L36.1326 63.3024C36.1421 63.4479 36.1337 63.5558 36.1071 63.626C36.0803 63.6962 36.0296 63.7436 35.9543 63.7677C35.8792 63.7919 35.762 63.804 35.602 63.804C35.5921 63.804 35.5874 63.8185 35.5874 63.8477C35.5874 63.8767 35.5921 63.8911 35.602 63.8911C35.7569 63.8911 35.8781 63.8889 35.9653 63.8839L36.4886 63.8767L37.0047 63.8839C37.0969 63.8889 37.2251 63.8911 37.39 63.8911C37.3997 63.8911 37.4044 63.8767 37.4044 63.8477C37.4044 63.8185 37.3997 63.804 37.39 63.804C37.2251 63.804 37.1065 63.7919 37.0337 63.7677Z" fill="#60C0C5"/>
<path d="M47.1114 59.6318C46.8327 59.4282 46.4536 59.3265 45.974 59.3265C45.8381 59.3265 45.7206 59.329 45.6214 59.3338C45.5219 59.3388 45.4434 59.3437 45.3852 59.3483C45.2252 59.3629 45.0895 59.3702 44.9781 59.3702C44.8472 59.3702 44.6751 59.3654 44.4621 59.3555L44.0841 59.3483C44.0694 59.3483 44.0624 59.3629 44.0624 59.3919C44.0624 59.4209 44.0694 59.4356 44.0841 59.4356C44.244 59.4356 44.3627 59.449 44.4402 59.4756C44.5177 59.5024 44.5697 59.5494 44.5965 59.6172C44.6231 59.6853 44.6364 59.7917 44.6364 59.9371V63.3023C44.6364 63.4477 44.6231 63.5557 44.5965 63.6259C44.5697 63.6961 44.5189 63.7434 44.4439 63.7675C44.3688 63.7919 44.2487 63.8039 44.0841 63.8039C44.0694 63.8039 44.0624 63.8185 44.0624 63.8476C44.0624 63.8766 44.0694 63.8911 44.0841 63.8911C44.244 63.8911 44.37 63.8887 44.4621 63.8838L44.9855 63.8766L45.6177 63.8838C45.7292 63.8887 45.8842 63.8911 46.0829 63.8911C46.0925 63.8911 46.0976 63.8766 46.0976 63.8476C46.0976 63.8185 46.0925 63.8039 46.0829 63.8039C45.86 63.8039 45.6965 63.7894 45.5923 63.7602C45.488 63.7312 45.4179 63.6815 45.3815 63.6112C45.3451 63.541 45.3271 63.4284 45.3271 63.2733V59.9517C45.3271 59.8112 45.3389 59.7081 45.3635 59.6427C45.3876 59.5772 45.43 59.5327 45.4906 59.5082C45.5512 59.4841 45.6397 59.4719 45.7558 59.4719C46.0708 59.4719 46.318 59.5772 46.4972 59.788C46.6764 59.9989 46.7661 60.2958 46.7661 60.6786C46.7661 61.0663 46.6789 61.3642 46.5044 61.5725C46.3301 61.781 46.1167 61.885 45.8647 61.885C45.7727 61.885 45.6879 61.8754 45.6104 61.8559C45.6006 61.8511 45.5923 61.8559 45.585 61.8706C45.5778 61.885 45.5741 61.8996 45.5741 61.914C45.5741 61.9384 45.5813 61.9505 45.596 61.9505C45.6879 61.9747 45.8018 61.9867 45.9376 61.9867C46.1944 61.9867 46.445 61.9336 46.6898 61.8269C46.9346 61.7205 47.1355 61.5605 47.2931 61.3472C47.4505 61.1341 47.5293 60.8746 47.5293 60.5694C47.5293 60.148 47.39 59.8354 47.1114 59.6318Z" fill="#60C0C5"/>
<path d="M55.401 61.4491L55.9461 60.2352L56.5421 61.4491H55.401ZM58.8392 63.8039C58.7083 63.8039 58.5858 63.7398 58.4719 63.6112C58.358 63.483 58.2139 63.2442 58.0394 62.8954L56.2661 59.3048C56.2611 59.2904 56.2417 59.2831 56.2079 59.2831C56.1739 59.2831 56.1522 59.2904 56.1425 59.3048L54.5871 62.8227C54.4659 63.0941 54.3604 63.2988 54.2708 63.4369C54.1811 63.575 54.0902 63.6707 53.9983 63.7241C53.9062 63.7774 53.7923 63.8039 53.6567 63.8039C53.6323 63.8039 53.6204 63.8185 53.6204 63.8477C53.6204 63.8767 53.6323 63.8911 53.6567 63.8911C53.7583 63.8911 53.8866 63.8863 54.0417 63.8767C54.2164 63.867 54.369 63.8621 54.4996 63.8621C54.6452 63.8621 54.8098 63.867 54.994 63.8767C55.1489 63.8863 55.2701 63.8911 55.3575 63.8911C55.3817 63.8911 55.3937 63.8767 55.3937 63.8477C55.3937 63.8185 55.3817 63.8039 55.3575 63.8039C55.1395 63.8039 54.9696 63.7602 54.8487 63.6731C54.7275 63.5859 54.6671 63.4575 54.6671 63.2879C54.6671 63.1717 54.6985 63.0407 54.7615 62.8954L55.3211 61.6379H56.6367L57.4217 63.2299C57.504 63.4042 57.5453 63.5278 57.5453 63.6005C57.5453 63.6731 57.5126 63.7254 57.4472 63.7568C57.3817 63.7882 57.2787 63.8039 57.1383 63.8039C57.1187 63.8039 57.1093 63.8185 57.1093 63.8477C57.1093 63.8767 57.1187 63.8911 57.1383 63.8911C57.2302 63.8911 57.3587 63.8863 57.5234 63.8767C57.6882 63.867 57.8311 63.8621 57.9523 63.8621C58.0443 63.8621 58.1922 63.867 58.3957 63.8767C58.599 63.8863 58.747 63.8911 58.8392 63.8911C58.8633 63.8911 58.8753 63.8767 58.8753 63.8477C58.8753 63.8185 58.8633 63.8039 58.8392 63.8039Z" fill="#60C0C5"/>
<path d="M70.3012 59.3485L69.9813 59.3557C69.8069 59.3655 69.676 59.3703 69.5889 59.3703C69.4873 59.3703 69.3588 59.3655 69.2038 59.3557L68.9057 59.3485C68.896 59.3485 68.8912 59.363 68.8912 59.392C68.8912 59.421 68.896 59.4357 68.9057 59.4357C69.0995 59.4357 69.246 59.5048 69.3454 59.6427C69.4446 59.781 69.4944 59.9784 69.4944 60.2352V62.8082L66.8777 59.7263C66.81 59.6489 66.7542 59.5737 66.7107 59.5011C66.6718 59.4382 66.6404 59.3969 66.6163 59.3776C66.5919 59.3582 66.5605 59.3485 66.5217 59.3485C66.444 59.3485 66.3763 59.3509 66.3181 59.3557L65.853 59.363C65.7366 59.363 65.6469 59.3606 65.5839 59.3557L65.2933 59.3485C65.2835 59.3485 65.2787 59.363 65.2787 59.392C65.2787 59.421 65.2835 59.4357 65.2933 59.4357C65.4047 59.4357 65.5162 59.4647 65.6276 59.5229C65.739 59.581 65.8626 59.6804 65.9984 59.8209V63.0118C65.9984 63.2686 65.9413 63.4648 65.8275 63.6005C65.7136 63.7362 65.5524 63.804 65.3442 63.804C65.3296 63.804 65.3224 63.8185 65.3224 63.8477C65.3224 63.8767 65.3296 63.8911 65.3442 63.8911C65.4943 63.8911 65.6083 63.8888 65.6858 63.8839L66.1074 63.8767L66.4853 63.8839C66.5581 63.8888 66.6597 63.8911 66.7906 63.8911C66.8003 63.8911 66.8051 63.8767 66.8051 63.8477C66.8051 63.8185 66.8003 63.804 66.7906 63.804C66.5967 63.804 66.449 63.7362 66.3471 63.6005C66.2455 63.4648 66.1945 63.2686 66.1945 63.0118V60.0462L69.6034 64.0075C69.6132 64.0171 69.6301 64.0195 69.6543 64.0147C69.6786 64.0098 69.6907 64.0026 69.6907 63.993V60.2352C69.6907 59.9784 69.7427 59.781 69.847 59.6427C69.9511 59.5048 70.1025 59.4357 70.3012 59.4357C70.3109 59.4357 70.3158 59.421 70.3158 59.392C70.3158 59.363 70.3109 59.3485 70.3012 59.3485Z" fill="#60C0C5"/>
<path d="M81.1747 59.3485L80.9058 59.3557C80.7992 59.3655 80.7023 59.3703 80.615 59.3703C80.4406 59.3703 80.2516 59.3655 80.0481 59.3557L79.6702 59.3485C79.6604 59.3485 79.6558 59.363 79.6558 59.392C79.6558 59.4211 79.6604 59.4357 79.6702 59.4357C79.8011 59.4357 79.9016 59.4647 79.9717 59.523C80.0419 59.581 80.0772 59.6611 80.0772 59.7627C80.0772 59.8985 80.0142 60.0706 79.8883 60.2788L79.1542 61.4926L78.0929 59.8718C78.0348 59.7847 78.0058 59.7046 78.0058 59.6319C78.0058 59.5011 78.105 59.4357 78.3037 59.4357C78.3133 59.4357 78.3182 59.4211 78.3182 59.392C78.3182 59.363 78.3133 59.3485 78.3037 59.3485L77.8458 59.3557C77.5453 59.3655 77.3153 59.3703 77.1554 59.3703C77.1068 59.3703 77.0292 59.3655 76.9227 59.3557L76.6828 59.3485C76.6683 59.3485 76.6611 59.363 76.6611 59.392C76.6611 59.4211 76.6683 59.4357 76.6828 59.4357C76.7894 59.4357 76.9033 59.4865 77.0245 59.5883C77.1455 59.6901 77.2884 59.8695 77.4533 60.1261L78.5581 61.8052V63.3024C78.5581 63.4479 78.5437 63.5558 78.5147 63.626C78.4855 63.6962 78.4332 63.7436 78.3584 63.7677C78.283 63.7919 78.163 63.804 77.9984 63.804C77.9887 63.804 77.9839 63.8185 77.9839 63.8477C77.9839 63.8767 77.9887 63.8911 77.9984 63.8911C78.163 63.8911 78.2916 63.8889 78.3837 63.8839L78.8997 63.8767L79.4376 63.8839C79.5296 63.8889 79.6532 63.8911 79.8084 63.8911C79.8178 63.8911 79.8228 63.8767 79.8228 63.8477C79.8228 63.8185 79.8178 63.804 79.8084 63.804C79.6435 63.804 79.5236 63.7919 79.4485 63.7677C79.3734 63.7436 79.3225 63.6973 79.2958 63.6295C79.2692 63.5618 79.256 63.4527 79.256 63.3024V61.6743L80.0845 60.3296C80.2443 60.0679 80.4261 59.8536 80.6296 59.6864C80.8331 59.5193 81.0148 59.4357 81.1747 59.4357C81.1843 59.4357 81.1894 59.4211 81.1894 59.392C81.1894 59.363 81.1843 59.3485 81.1747 59.3485Z" fill="#60C0C5"/>
<path d="M7.3893 50.2183L8.40542 48.4519L9.42181 50.2183H7.3893ZM0 55.4136H4.38803L5.19529 54.0175H11.6158L12.4231 55.4136H16.8111L8.40542 40.8536L0 55.4136Z" fill="#60C0C5"/>
<path d="M40.8326 48.1196C39.9967 47.2836 38.9899 46.8658 37.8124 46.8658H34.9631C34.8298 46.8658 34.7176 46.8201 34.6264 46.7275C34.5338 46.6365 34.4882 46.5242 34.4882 46.3908C34.4882 46.2575 34.5338 46.1452 34.6264 46.0542C34.7176 45.9614 34.8298 45.9159 34.9631 45.9159H42.0866V42.1168H34.9631C33.7856 42.1168 32.7789 42.5348 31.9429 43.3707C31.4615 43.8521 31.1183 44.392 30.9151 44.9873C30.7639 45.4248 30.6891 45.8915 30.6891 46.3908C30.6891 46.5973 30.7022 46.799 30.7281 46.9942C30.8485 47.9164 31.2534 48.7214 31.9429 49.411C32.7789 50.2469 33.7856 50.6649 34.9631 50.6649H37.8124C37.9459 50.6649 38.0581 50.7104 38.1491 50.8031C38.2419 50.8942 38.2874 51.0063 38.2874 51.1398C38.2874 51.2731 38.2419 51.3853 38.1491 51.4763C38.0581 51.5691 37.9459 51.6146 37.8124 51.6146H30.8761C30.9022 51.8098 30.9151 52.0115 30.9151 52.2181C30.9151 53.3955 30.4971 54.4022 29.6611 55.2382C29.5994 55.2999 29.5375 55.3586 29.4742 55.4138H37.8124C38.9899 55.4138 39.9967 54.9958 40.8326 54.1598C41.6686 53.324 42.0866 52.3173 42.0866 51.1398C42.0866 49.9623 41.6686 48.9556 40.8326 48.1196Z" fill="#60C0C5"/>
<path d="M48.5021 50.2183L49.5182 48.4519L50.5346 50.2183H48.5021ZM49.5182 40.8536L41.1128 55.4136H45.5008L46.3081 54.0175H52.7285L53.5359 55.4136H57.9239L49.5182 40.8536Z" fill="#60C0C5"/>
<path d="M68.413 48.9263L61.6034 42.1168H58.915V55.4138H62.7141V48.6043L69.5236 55.4138H72.212V42.1168H68.413V48.9263Z" fill="#60C0C5"/>
<path d="M80.5781 50.2183L81.5943 48.4519L82.6107 50.2183H80.5781ZM81.5943 40.8536L73.1888 55.4136H77.5769L78.3841 54.0175H84.8045L85.6119 55.4136H90L81.5943 40.8536Z" fill="#60C0C5"/>
<path d="M28.4855 48.1195C27.6496 47.2835 26.6429 46.8658 25.4652 46.8658H22.6158C22.4829 46.8658 22.3705 46.8199 22.2786 46.728C22.1868 46.6362 22.1409 46.5238 22.1409 46.3909C22.1409 46.258 22.1868 46.1455 22.2786 46.0536C22.3705 45.962 22.4829 45.9159 22.6158 45.9159H29.739V42.117H22.6158C21.4382 42.117 20.4314 42.5349 19.5957 43.3706C18.7598 44.2064 18.3419 45.2131 18.3419 46.3909C18.3419 47.5685 18.7598 48.5753 19.5957 49.411C20.4314 50.2469 21.4382 50.6649 22.6158 50.6649H25.4652C25.5981 50.6649 25.7105 50.7108 25.8023 50.8026C25.8942 50.8945 25.94 51.0068 25.94 51.1397C25.94 51.2726 25.8942 51.3852 25.8023 51.4769C25.7105 51.5687 25.5981 51.6146 25.4652 51.6146H16.2959L18.3419 55.4136H25.4652C26.6429 55.4136 27.6496 54.9959 28.4855 54.16C29.3212 53.3241 29.739 52.3175 29.739 51.1397C29.739 49.9621 29.3212 48.9553 28.4855 48.1195Z" fill="#60C0C5"/>
</svg>
