<svg width="87" height="86" viewBox="0 0 87 86" fill="none" xmlns="http://www.w3.org/2000/svg">
<path fill-rule="evenodd" clip-rule="evenodd" d="M59.0506 11.984C54.9447 9.91826 50.3755 8.64662 45.541 8.3651V14.4288C45.541 15.5548 44.6267 16.4691 43.5 16.4691C42.3732 16.4691 41.4589 15.5549 41.4589 14.4288V8.3651C36.6246 8.64673 32.0554 9.91827 27.9493 11.984L30.9818 17.2365C31.5449 18.2124 31.2101 19.4615 30.235 20.0245C29.2591 20.5876 28.01 20.2534 27.447 19.2777L24.4166 14.0285C20.4896 16.6223 17.1202 19.9915 14.5285 23.9166L19.7777 26.947C20.7534 27.5101 21.0876 28.7592 20.5245 29.735C19.9614 30.7101 18.7123 31.0449 17.7365 30.4818L12.484 27.4493C10.4183 31.5552 9.14662 36.1245 8.8651 40.9589H14.9288C16.0548 40.9589 16.9691 41.8732 16.9691 43C16.9691 44.1267 16.0549 45.041 14.9288 45.041H8.8651C9.14673 49.8753 10.4183 54.4446 12.484 58.5506L17.7365 55.5181C18.7124 54.955 19.9615 55.2899 20.5245 56.265C21.0876 57.2409 20.7534 58.4899 19.7777 59.0529L14.5285 62.0834C17.1223 66.0103 20.4915 69.3798 24.4166 71.9715L27.447 66.7223C28.0101 65.7465 29.2592 65.4124 30.235 65.9754C31.2101 66.5385 31.5449 67.7877 30.9818 68.7634L27.9493 74.0159C32.0552 76.0817 36.6245 77.3533 41.4589 77.6348V71.5712C41.4589 70.4451 42.3732 69.5308 43.5 69.5308C44.6267 69.5308 45.541 70.4451 45.541 71.5712V77.6348C50.3753 77.3532 54.9446 76.0817 59.0506 74.0159L56.0181 68.7634C55.455 67.7875 55.7899 66.5385 56.765 65.9754C57.7409 65.4124 58.9899 65.7465 59.5529 66.7223L62.5834 71.9715C66.5103 69.3777 69.8798 66.0084 72.4715 62.0834L67.2223 59.0529C66.2465 58.4898 65.9124 57.2407 66.4754 56.265C67.0385 55.2899 68.2877 54.955 69.2634 55.5181L74.5159 58.5506C76.5817 54.4447 77.8533 49.8755 78.1348 45.041H72.0712C70.9451 45.041 70.0308 44.1267 70.0308 43C70.0308 41.8732 70.9451 40.9589 72.0712 40.9589H78.1348C77.8532 36.1246 76.5816 31.5554 74.5159 27.4493L69.2634 30.4818C68.2875 31.0449 67.0385 30.7101 66.4754 29.735C65.9124 28.7591 66.2465 27.51 67.2223 26.947L72.4715 23.9166C69.8777 19.9896 66.5084 16.6202 62.5834 14.0285L59.5529 19.2777C58.9898 20.2534 57.7407 20.5876 56.765 20.0245C55.7899 19.4614 55.455 18.2123 56.0181 17.2365L59.0506 11.984ZM25.7305 28.1161L37.9754 40.361C37.5921 41.1592 37.3775 42.055 37.3775 43C37.3775 46.3796 40.1204 49.1224 43.5 49.1224C46.1636 49.1224 48.4328 47.4183 49.2733 45.041H63.9084C65.0344 45.041 65.9487 44.1267 65.9487 43C65.9487 41.8732 65.0345 40.9589 63.9084 40.9589H49.2733C48.4327 38.5817 46.1636 36.8775 43.5 36.8775C42.5549 36.8775 41.6591 37.0921 40.861 37.4754L28.6161 25.2305C27.82 24.4345 26.5266 24.4344 25.7305 25.2305C24.9345 26.0266 24.9345 27.3201 25.7305 28.1161ZM45.541 43C45.541 41.8732 44.6267 40.9589 43.5 40.9589C42.3732 40.9589 41.4589 41.8732 41.4589 43C41.4589 44.1267 42.3732 45.041 43.5 45.041C44.6267 45.041 45.541 44.1267 45.541 43Z" fill="#60C1C6"/>
<path fill-rule="evenodd" clip-rule="evenodd" d="M43.5 0.142822C67.1519 0.142822 86.3571 19.3481 86.3571 43C86.3571 66.6519 67.1519 85.8571 43.5 85.8571C19.8481 85.8571 0.642822 66.6519 0.642822 43C0.642822 19.3481 19.8481 0.142822 43.5 0.142822ZM4.72387 43.0003C4.72387 21.6001 22.0994 4.22422 43.5 4.22422C64.9002 4.22422 82.2761 21.6001 82.2761 43.0003C82.2761 64.4006 64.9002 81.7764 43.5 81.7764C22.0997 81.7764 4.72387 64.4006 4.72387 43.0003Z" fill="#247B80"/>
</svg>
