<svg width="83" height="94" viewBox="0 0 83 94" fill="none" xmlns="http://www.w3.org/2000/svg">
<path d="M37.2302 16.481L42.721 21.8341V0.856445H28.1263V21.979L33.6172 16.6259C34.629 15.6135 36.2182 15.6135 37.2302 16.4814V16.481Z" fill="#247B80"/>
<path d="M36.7976 62.7772C35.9308 59.8839 37.52 57.5687 38.5319 56.1221C37.2314 54.82 35.4978 52.6501 36.0752 49.7567C36.6533 46.8634 39.2544 45.7058 40.8436 44.9825C40.4099 43.1016 39.9768 40.3528 41.8548 38.1828C43.011 36.8807 44.6002 36.3019 46.6232 36.3019C47.3457 36.3019 47.9238 36.4464 48.5018 36.4464C49.0799 34.5656 50.0911 31.9612 52.8365 31.0933C53.4146 30.9488 53.9927 30.8043 54.5709 30.8043C56.5939 30.8043 58.328 31.9619 59.4837 32.8297C60.6399 31.6721 62.3736 30.2256 64.6859 30.2256C65.1197 30.2256 65.4084 30.2256 65.8421 30.3701C68.5875 30.9489 69.8881 33.2634 70.6105 34.9997V6.93236C70.6105 3.60472 67.8651 0.855957 64.5415 0.855957H45.6125V22.7015C45.6125 23.7139 45.0344 24.7269 44.0232 25.016C43.0121 25.305 42.0002 25.1605 41.2778 24.4372L35.4981 18.795L29.7184 24.4372C29.2847 24.8714 28.5622 25.1605 27.8398 25.1605C27.5511 25.1605 27.1174 25.1605 26.8287 25.016C25.8175 24.5817 25.2394 23.7138 25.2394 22.7015L25.2381 0.855964H6.1643C2.84069 0.855964 0.240356 3.60473 0.240356 6.93237V64.513C0.240356 67.8407 2.98579 70.4448 6.30939 70.4448H42.289C42.0003 69.1427 42.1446 67.9851 42.289 66.9728C40.4104 66.5385 37.8092 65.5261 36.7975 62.7774L36.7976 62.7772ZM7.32008 47.7312L10.6437 43.246C10.788 42.957 11.3661 42.6672 11.7999 42.6672C12.378 42.6672 12.8111 43.1015 12.9561 43.246L16.2797 47.7312C16.7134 48.31 16.5684 49.3224 15.991 49.7567C15.4129 50.191 14.5461 50.191 13.968 49.4676L13.2455 48.4552V56.1228C13.2455 56.9907 12.5231 57.5695 11.8006 57.5695C10.9338 57.5695 10.3557 56.9907 10.3557 56.1228V48.4552L9.63191 49.467C9.19817 50.0458 8.33137 50.1903 7.6089 49.756C7.03148 49.3224 6.88645 48.4546 7.32019 47.7313L7.32008 47.7312ZM26.3939 62.9218H8.76424C8.04179 62.9218 7.31934 62.343 7.31934 61.4752C7.31934 60.6073 8.04179 60.0285 8.76424 60.0285H26.2491C26.9716 60.0285 27.694 60.6073 27.694 61.4752C27.694 62.343 27.1159 62.9218 26.3935 62.9218H26.3939ZM27.5501 49.7567C26.972 50.191 25.9608 50.0458 25.527 49.4676L24.6602 48.4552V56.1228C24.6602 56.9907 24.0822 57.5695 23.2153 57.5695C22.3485 57.5695 21.7704 56.9907 21.7704 56.1228V48.4552L20.9036 49.4676C20.4699 50.0464 19.4587 50.191 18.8806 49.7567C18.3025 49.3224 18.1582 48.31 18.5919 47.7312L21.9155 43.246C22.0599 42.957 22.638 42.6672 23.0717 42.6672C23.6498 42.6672 24.0829 43.1015 24.2279 43.246L27.5515 47.7312C28.2726 48.4546 28.2726 49.3224 27.5502 49.7567H27.5501Z" fill="#60C1C6"/>
<path d="M80.5804 55.5426C80.1466 55.1084 79.4242 54.2405 79.2798 53.9515C79.2798 53.6624 80.0023 52.7939 80.291 52.3603C81.3022 51.0581 82.314 49.6115 81.8803 48.0203C81.3022 46.4291 79.5686 45.8503 78.1231 45.4162C77.545 45.2716 76.5338 44.9819 76.3887 44.6928C76.2444 44.4038 76.3887 43.2462 76.3887 42.6674C76.5331 41.0762 76.8225 39.3397 75.6663 38.1821C74.5101 37.0245 72.6322 37.4588 71.1865 37.8931C70.6084 38.0376 69.4521 38.3273 69.3079 38.1821C69.0192 38.0376 68.5854 37.0245 68.4411 36.4457C67.863 34.999 67.1405 33.2626 65.5512 32.9736C63.962 32.6846 62.6614 33.8415 61.5052 34.9991C61.0715 35.4333 60.2047 36.1567 59.916 36.3012C59.6272 36.3012 58.7598 35.5779 58.3267 35.2888C57.0262 34.2764 55.5813 33.2633 53.992 33.6976C52.4028 34.1319 51.8246 36.0121 51.391 37.4594C51.2466 38.0382 50.9573 39.0506 50.6685 39.1958C50.3798 39.3404 49.2236 39.1958 48.6455 39.0513C47.0563 38.9068 45.3219 38.617 44.1658 39.7746C43.0096 41.0768 43.4433 42.8124 43.877 44.2599C44.0214 44.8386 44.3108 45.9963 44.1658 46.1407C44.0214 46.4298 43.0096 46.8641 42.4314 47.0086C40.9865 47.5874 39.2522 48.3107 38.9635 49.9019C38.6748 51.4931 39.8304 52.7953 40.9866 53.9529C41.4203 54.3871 42.1428 55.255 42.2871 55.5441C42.2871 55.8331 41.5646 56.7017 41.2759 57.1352C40.2648 58.4374 39.2529 59.884 39.6867 61.4752C40.2648 63.0664 41.9984 63.6452 43.4439 64.0794C44.022 64.2239 45.0331 64.5136 45.1782 64.8027C45.3226 65.0918 45.1782 66.2494 45.0339 66.8282C44.8895 68.4193 44.6001 70.1558 45.7563 71.3134C46.9125 72.471 48.7904 72.0367 50.2361 71.6024C50.8142 71.4579 51.9705 71.1682 52.1147 71.3134C52.4034 71.4579 52.8372 72.471 52.9815 73.0498C53.5596 74.4965 54.282 76.2329 55.8713 76.5219H56.4494C57.75 76.5219 58.9062 75.5095 59.9173 74.4964C60.351 74.0622 61.2178 73.3388 61.5065 73.1943C61.7953 73.1943 62.6627 73.9176 63.0958 74.2067C64.3963 75.2191 65.8412 76.2322 67.4305 75.7979C69.0197 75.3636 69.5979 73.4834 70.0315 72.0361C70.1759 71.4573 70.4652 70.445 70.754 70.2997C71.0427 70.1551 72.1989 70.2997 72.777 70.4442C74.3662 70.5887 76.1006 70.8785 77.2567 69.7209C78.4129 68.5633 77.9792 66.6831 77.5455 65.2357C77.4011 64.6569 77.1117 63.4992 77.2567 63.2102C77.4011 62.9211 78.4129 62.4869 78.9911 62.3423C80.436 61.7635 82.1703 61.0402 82.4589 59.449C82.8927 58.0023 81.7365 56.7002 80.5803 55.5426H80.5804ZM70.0322 53.8069L65.842 56.8446C65.5533 57.1337 65.4082 57.4234 65.5533 57.857L67.1425 62.9203C67.4312 63.7881 66.4201 64.5115 65.6976 63.9327L61.3629 60.8949C61.0742 60.6058 60.6405 60.6058 60.2067 60.8949L56.0165 63.9327C55.294 64.5115 54.2821 63.7881 54.5716 62.9203L56.1608 57.857C56.3052 57.4228 56.1608 56.9892 55.8721 56.8446L51.6818 53.8069C50.9594 53.2281 51.3931 52.2157 52.2599 52.2157H57.4621C57.8959 52.2157 58.1846 51.9266 58.3289 51.6369L59.9182 46.5736C60.2069 45.7058 61.3631 45.7058 61.6525 46.5736L63.2418 51.6369C63.3861 52.0712 63.6755 52.2157 64.1086 52.2157H69.3108C70.3213 52.0705 70.755 53.2281 70.0326 53.8069H70.0322Z" fill="#247B80"/>
<path d="M68.5877 78.9806C68.0097 79.1252 67.4316 79.2697 66.8534 79.2697C64.8304 79.2697 63.0962 78.1121 61.9405 77.2442C60.7843 78.4018 59.0507 79.8484 56.7383 79.8484C56.3046 79.8484 55.8715 79.8484 55.5821 79.7039C52.6923 79.1251 51.5361 76.5208 50.8137 74.7851C50.525 74.9296 50.2356 74.9296 49.9469 74.9296V90.5545C49.9469 91.5668 50.525 92.5799 51.3918 93.0142C51.8255 93.1587 52.2586 93.3033 52.6923 93.3033C53.2704 93.3033 53.8485 93.1587 54.2816 92.7245L61.5068 87.3714L68.732 92.7245C69.5988 93.3033 70.6106 93.4478 71.6219 93.0135C72.4887 92.5793 73.2111 91.5669 73.2111 90.5538L73.2118 73.6274H73.0674C72.3443 75.3632 71.3331 78.112 68.5877 78.9805L68.5877 78.9806Z" fill="#60C1C6"/>
</svg>
